<svg xmlns="http://www.w3.org/2000/svg" xmlns:xlink="http://www.w3.org/1999/xlink" width="6912" zoomAndPan="magnify" viewBox="0 0 5184 2592.000001" height="3456" preserveAspectRatio="xMidYMid meet" version="1.0"><defs><g><g id="id1"/></g><clipPath id="id2"><path d="M 130.550781 510.25 L 5045.652344 510.25 L 5045.652344 1838.734375 L 130.550781 1838.734375 Z M 130.550781 510.25 " clip-rule="nonzero"/></clipPath></defs><g clip-path="url(#id2)"><path fill="rgb(98.429871%, 74.899292%, 14.118958%)" d="M 130.550781 510.25 L 5045.652344 510.25 L 5045.652344 1838.734375 L 130.550781 1838.734375 Z M 130.550781 510.25 " fill-opacity="1" fill-rule="nonzero"/></g><g fill="rgb(0%, 0%, 0%)" fill-opacity="1"><g transform="translate(456.603286, 1508.366242)"><g><path d="M 573.03125 -149.65625 C 573.03125 -89.269531 575.328125 -39.382812 579.921875 0 C 535.285156 -1.96875 460.128906 -2.953125 354.453125 -2.953125 C 211.359375 -2.953125 104.363281 -1.96875 33.46875 0 L 33.46875 -19.6875 C 55.132812 -21 71.050781 -23.625 81.21875 -27.5625 C 91.394531 -31.5 98.285156 -39.046875 101.890625 -50.203125 C 105.503906 -61.367188 107.3125 -79.421875 107.3125 -104.359375 L 107.3125 -592.71875 C 107.3125 -617.65625 105.503906 -635.703125 101.890625 -646.859375 C 98.285156 -658.023438 91.394531 -665.578125 81.21875 -669.515625 C 71.050781 -673.453125 55.132812 -676.078125 33.46875 -677.390625 L 33.46875 -697.078125 C 104.363281 -695.109375 211.359375 -694.125 354.453125 -694.125 C 450.941406 -694.125 519.53125 -695.109375 560.21875 -697.078125 C 555.625 -642.597656 553.328125 -594.023438 553.328125 -551.359375 C 553.328125 -522.484375 554.3125 -500.164062 556.28125 -484.40625 L 533.640625 -484.40625 C 523.796875 -554.644531 506.070312 -603.875 480.46875 -632.09375 C 454.875 -660.320312 418.773438 -674.4375 372.171875 -674.4375 L 331.796875 -674.4375 C 311.453125 -674.4375 296.6875 -672.796875 287.5 -669.515625 C 278.3125 -666.234375 272.070312 -659.832031 268.78125 -650.3125 C 265.5 -640.789062 263.859375 -625.53125 263.859375 -604.53125 L 263.859375 -360.359375 L 295.375 -360.359375 C 330.164062 -360.359375 356.582031 -373.15625 374.625 -398.75 C 392.675781 -424.351562 405.3125 -454.875 412.53125 -490.3125 L 435.1875 -490.3125 C 433.21875 -462.75 432.234375 -431.898438 432.234375 -397.765625 L 432.234375 -350.515625 C 432.234375 -317.035156 434.203125 -270.429688 438.140625 -210.703125 L 415.484375 -210.703125 C 401.703125 -297.335938 361.664062 -340.65625 295.375 -340.65625 L 263.859375 -340.65625 L 263.859375 -92.546875 C 263.859375 -71.546875 265.5 -56.285156 268.78125 -46.765625 C 272.070312 -37.242188 278.3125 -30.84375 287.5 -27.5625 C 296.6875 -24.28125 311.453125 -22.640625 331.796875 -22.640625 L 380.046875 -22.640625 C 426.648438 -22.640625 464.226562 -38.554688 492.78125 -70.390625 C 521.332031 -102.234375 541.515625 -156.222656 553.328125 -232.359375 L 575.984375 -232.359375 C 574.015625 -210.703125 573.03125 -183.132812 573.03125 -149.65625 Z M 573.03125 -149.65625 "/></g></g></g><g fill="rgb(0%, 0%, 0%)" fill-opacity="1"><g transform="translate(1080.825965, 1508.366242)"><g><path d="M 414.5 -225.46875 L 59.078125 -225.46875 L 59.078125 -307.1875 L 414.5 -307.1875 Z M 414.5 -225.46875 "/></g></g></g><g fill="rgb(0%, 0%, 0%)" fill-opacity="1"><g transform="translate(1554.408242, 1508.366242)"><g><path d="M -22.640625 167.375 C 10.171875 166.0625 35.929688 152.929688 54.640625 127.984375 C 73.347656 103.046875 82.703125 66.289062 82.703125 17.71875 L 82.703125 -401.703125 C 82.703125 -431.898438 77.941406 -453.890625 68.421875 -467.671875 C 58.910156 -481.453125 42.664062 -488.34375 19.6875 -488.34375 L 19.6875 -509.03125 C 40.695312 -507.0625 61.046875 -506.078125 80.734375 -506.078125 C 137.835938 -506.078125 185.753906 -510.671875 224.484375 -519.859375 L 224.484375 -92.546875 C 224.484375 -37.410156 219.066406 7.875 208.234375 43.3125 C 197.410156 78.757812 179.195312 108.300781 153.59375 131.9375 C 114.863281 167.375 56.117188 185.09375 -22.640625 185.09375 Z M 142.765625 -763.046875 C 170.328125 -763.046875 192.148438 -756.316406 208.234375 -742.859375 C 224.316406 -729.410156 232.359375 -710.867188 232.359375 -687.234375 C 232.359375 -663.609375 224.316406 -645.066406 208.234375 -631.609375 C 192.148438 -618.148438 170.328125 -611.421875 142.765625 -611.421875 C 115.191406 -611.421875 93.363281 -618.148438 77.28125 -631.609375 C 61.207031 -645.066406 53.171875 -663.609375 53.171875 -687.234375 C 53.171875 -710.867188 61.207031 -729.410156 77.28125 -742.859375 C 93.363281 -756.316406 115.191406 -763.046875 142.765625 -763.046875 Z M 142.765625 -763.046875 "/></g></g></g><g fill="rgb(0%, 0%, 0%)" fill-opacity="1"><g transform="translate(1846.827995, 1508.366242)"><g><path d="M 313.09375 -66.953125 C 366.914062 -66.953125 410.238281 -93.207031 443.0625 -145.71875 L 460.78125 -139.8125 C 447.65625 -97.144531 424.1875 -60.878906 390.375 -31.015625 C 356.570312 -1.148438 314.398438 13.78125 263.859375 13.78125 C 194.285156 13.78125 138.984375 -8.367188 97.953125 -52.671875 C 56.929688 -96.984375 36.421875 -162.457031 36.421875 -249.09375 C 36.421875 -337.707031 58.410156 -405.476562 102.390625 -452.40625 C 146.367188 -499.34375 204.789062 -522.8125 277.65625 -522.8125 C 401.050781 -522.8125 462.75 -449.953125 462.75 -304.234375 L 186.078125 -304.234375 C 185.421875 -294.390625 185.09375 -278.960938 185.09375 -257.953125 C 185.09375 -214.640625 191.164062 -178.539062 203.3125 -149.65625 C 215.457031 -120.769531 231.210938 -99.765625 250.578125 -86.640625 C 269.941406 -73.515625 290.78125 -66.953125 313.09375 -66.953125 Z M 271.75 -502.140625 C 248.113281 -502.140625 228.582031 -487.53125 213.15625 -458.3125 C 197.738281 -429.101562 188.054688 -383.976562 184.109375 -322.9375 L 338.6875 -322.9375 C 340 -374.789062 334.910156 -417.617188 323.421875 -451.421875 C 311.941406 -485.234375 294.71875 -502.140625 271.75 -502.140625 Z M 271.75 -502.140625 "/></g></g></g><g fill="rgb(0%, 0%, 0%)" fill-opacity="1"><g transform="translate(2343.055615, 1508.366242)"><g><path d="M 362.328125 -522.8125 C 391.859375 -522.8125 414.171875 -513.945312 429.265625 -496.21875 C 444.367188 -478.5 451.921875 -457.171875 451.921875 -432.234375 C 451.921875 -407.941406 444.863281 -388.082031 430.75 -372.65625 C 416.632812 -357.238281 398.09375 -349.53125 375.125 -349.53125 C 352.8125 -349.53125 335.085938 -355.269531 321.953125 -366.75 C 308.828125 -378.238281 302.265625 -393.5 302.265625 -412.53125 C 302.265625 -444.039062 316.707031 -469.640625 345.59375 -489.328125 C 342.96875 -489.984375 339.023438 -490.3125 333.765625 -490.3125 C 327.203125 -490.3125 321.953125 -489.65625 318.015625 -488.34375 C 293.078125 -484.40625 271.910156 -469.304688 254.515625 -443.046875 C 237.117188 -416.796875 228.421875 -389.890625 228.421875 -362.328125 L 228.421875 -101.40625 C 228.421875 -71.21875 235.804688 -50.210938 250.578125 -38.390625 C 265.347656 -26.578125 288.8125 -20.671875 320.96875 -20.671875 L 320.96875 0 C 311.78125 0 304.234375 -0.328125 298.328125 -0.984375 C 231.378906 -2.953125 186.742188 -3.9375 164.421875 -3.9375 C 146.703125 -3.9375 106.335938 -2.953125 43.328125 -0.984375 C 38.066406 -0.328125 31.5 0 23.625 0 L 23.625 -20.671875 C 47.257812 -20.671875 63.671875 -25.757812 72.859375 -35.9375 C 82.046875 -46.113281 86.640625 -64.65625 86.640625 -91.5625 L 86.640625 -401.703125 C 86.640625 -431.898438 82.046875 -453.890625 72.859375 -467.671875 C 63.671875 -481.453125 47.257812 -488.34375 23.625 -488.34375 L 23.625 -509.03125 C 44.632812 -507.0625 64.984375 -506.078125 84.671875 -506.078125 C 143.085938 -506.078125 191.003906 -510.671875 228.421875 -519.859375 L 228.421875 -428.296875 C 240.890625 -456.515625 258.9375 -479.320312 282.5625 -496.71875 C 306.195312 -514.113281 332.785156 -522.8125 362.328125 -522.8125 Z M 362.328125 -522.8125 "/></g></g></g><g fill="rgb(0%, 0%, 0%)" fill-opacity="1"><g transform="translate(2802.853832, 1508.366242)"><g><path d="M 218.578125 -522.8125 C 243.515625 -522.8125 266.484375 -519.691406 287.484375 -513.453125 C 308.492188 -507.222656 324.578125 -500.171875 335.734375 -492.296875 C 342.304688 -487.691406 348.21875 -485.390625 353.46875 -485.390625 C 359.375 -485.390625 364.457031 -488.507812 368.71875 -494.75 C 372.988281 -500.988281 375.78125 -510.015625 377.09375 -521.828125 L 397.765625 -521.828125 C 395.140625 -488.347656 393.828125 -430.585938 393.828125 -348.546875 L 373.15625 -348.546875 C 367.25 -391.859375 354.285156 -428.117188 334.265625 -457.328125 C 314.242188 -486.546875 285.195312 -501.15625 247.125 -501.15625 C 227.4375 -501.15625 211.191406 -495.570312 198.390625 -484.40625 C 185.585938 -473.25 179.1875 -457.828125 179.1875 -438.140625 C 179.1875 -415.816406 186.734375 -396.613281 201.828125 -380.53125 C 216.929688 -364.457031 240.566406 -344.929688 272.734375 -321.953125 L 301.28125 -301.28125 C 341.320312 -271.082031 370.859375 -244.164062 389.890625 -220.53125 C 408.929688 -196.90625 418.453125 -167.375 418.453125 -131.9375 C 418.453125 -103.050781 410.082031 -77.445312 393.34375 -55.125 C 376.601562 -32.8125 354.117188 -15.75 325.890625 -3.9375 C 297.671875 7.875 266.492188 13.78125 232.359375 13.78125 C 196.253906 13.78125 165.40625 6.890625 139.8125 -6.890625 C 118.800781 -17.390625 103.703125 -24.28125 94.515625 -27.5625 C 87.953125 -29.53125 82.207031 -27.394531 77.28125 -21.15625 C 72.363281 -14.925781 68.59375 -5.578125 65.96875 6.890625 L 45.296875 6.890625 C 47.921875 -30.523438 49.234375 -96.164062 49.234375 -190.03125 L 69.90625 -190.03125 C 83.03125 -69.25 127.335938 -8.859375 202.828125 -8.859375 C 221.859375 -8.859375 238.101562 -14.601562 251.5625 -26.09375 C 265.019531 -37.582031 271.75 -55.140625 271.75 -78.765625 C 271.75 -97.140625 267.644531 -113.546875 259.4375 -127.984375 C 251.226562 -142.429688 240.890625 -155.234375 228.421875 -166.390625 C 215.953125 -177.546875 197.242188 -192.972656 172.296875 -212.671875 C 142.765625 -236.296875 120.285156 -255.328125 104.859375 -269.765625 C 89.429688 -284.210938 76.300781 -301.28125 65.46875 -320.96875 C 54.644531 -340.664062 49.234375 -362.65625 49.234375 -386.9375 C 49.234375 -428.945312 65.640625 -462.09375 98.453125 -486.375 C 131.273438 -510.664062 171.316406 -522.8125 218.578125 -522.8125 Z M 218.578125 -522.8125 "/></g></g></g><g fill="rgb(0%, 0%, 0%)" fill-opacity="1"><g transform="translate(3257.729025, 1508.366242)"><g><path d="M 313.09375 -66.953125 C 366.914062 -66.953125 410.238281 -93.207031 443.0625 -145.71875 L 460.78125 -139.8125 C 447.65625 -97.144531 424.1875 -60.878906 390.375 -31.015625 C 356.570312 -1.148438 314.398438 13.78125 263.859375 13.78125 C 194.285156 13.78125 138.984375 -8.367188 97.953125 -52.671875 C 56.929688 -96.984375 36.421875 -162.457031 36.421875 -249.09375 C 36.421875 -337.707031 58.410156 -405.476562 102.390625 -452.40625 C 146.367188 -499.34375 204.789062 -522.8125 277.65625 -522.8125 C 401.050781 -522.8125 462.75 -449.953125 462.75 -304.234375 L 186.078125 -304.234375 C 185.421875 -294.390625 185.09375 -278.960938 185.09375 -257.953125 C 185.09375 -214.640625 191.164062 -178.539062 203.3125 -149.65625 C 215.457031 -120.769531 231.210938 -99.765625 250.578125 -86.640625 C 269.941406 -73.515625 290.78125 -66.953125 313.09375 -66.953125 Z M 271.75 -502.140625 C 248.113281 -502.140625 228.582031 -487.53125 213.15625 -458.3125 C 197.738281 -429.101562 188.054688 -383.976562 184.109375 -322.9375 L 338.6875 -322.9375 C 340 -374.789062 334.910156 -417.617188 323.421875 -451.421875 C 311.941406 -485.234375 294.71875 -502.140625 271.75 -502.140625 Z M 271.75 -502.140625 "/></g></g></g><g fill="rgb(0%, 0%, 0%)" fill-opacity="1"><g transform="translate(3753.956645, 1508.366242)"><g><path d="M 429.28125 -506.078125 C 462.09375 -506.078125 487.363281 -507.0625 505.09375 -509.03125 L 505.09375 -489.328125 C 491.300781 -485.390625 478.988281 -477.019531 468.15625 -464.21875 C 457.332031 -451.425781 447 -431.570312 437.15625 -404.65625 L 260.90625 90.578125 C 247.78125 124.710938 233.34375 148.015625 217.59375 160.484375 C 198.550781 176.890625 170 185.09375 131.9375 185.09375 C 104.363281 185.09375 79.582031 178.363281 57.59375 164.90625 C 35.601562 151.457031 24.609375 131.929688 24.609375 106.328125 C 24.609375 85.984375 31.828125 69.738281 46.265625 57.59375 C 60.710938 45.457031 79.75 39.390625 103.375 39.390625 C 125.695312 39.390625 143.582031 44.800781 157.03125 55.625 C 170.488281 66.457031 177.21875 81.71875 177.21875 101.40625 C 177.21875 115.195312 172.953125 127.832031 164.421875 139.3125 C 155.890625 150.800781 143.75 159.5 128 165.40625 C 132.59375 166.0625 140.140625 166.390625 150.640625 166.390625 C 191.335938 166.390625 221.203125 140.460938 240.234375 88.609375 L 255.984375 41.359375 L 47.265625 -433.21875 C 36.753906 -455.53125 26.578125 -470.296875 16.734375 -477.515625 C 6.890625 -484.734375 -3.28125 -488.34375 -13.78125 -488.34375 L -13.78125 -509.03125 C 29.539062 -505.09375 74.503906 -503.125 121.109375 -503.125 C 159.828125 -503.125 205.441406 -505.09375 257.953125 -509.03125 L 257.953125 -488.34375 C 236.953125 -488.34375 221.363281 -486.863281 211.1875 -483.90625 C 201.019531 -480.957031 195.9375 -473.25 195.9375 -460.78125 C 195.9375 -453.5625 198.234375 -444.375 202.828125 -433.21875 L 322.9375 -142.765625 L 390.875 -331.796875 C 401.375 -362.648438 406.625 -388.90625 406.625 -410.5625 C 406.625 -458.476562 382.335938 -484.734375 333.765625 -489.328125 L 333.765625 -509.03125 C 364.617188 -507.0625 396.457031 -506.078125 429.28125 -506.078125 Z M 429.28125 -506.078125 "/></g></g></g><g fill="rgb(0%, 0%, 0%)" fill-opacity="1"><g transform="translate(4264.952828, 1508.366242)"><g><path d="M 218.578125 -522.8125 C 243.515625 -522.8125 266.484375 -519.691406 287.484375 -513.453125 C 308.492188 -507.222656 324.578125 -500.171875 335.734375 -492.296875 C 342.304688 -487.691406 348.21875 -485.390625 353.46875 -485.390625 C 359.375 -485.390625 364.457031 -488.507812 368.71875 -494.75 C 372.988281 -500.988281 375.78125 -510.015625 377.09375 -521.828125 L 397.765625 -521.828125 C 395.140625 -488.347656 393.828125 -430.585938 393.828125 -348.546875 L 373.15625 -348.546875 C 367.25 -391.859375 354.285156 -428.117188 334.265625 -457.328125 C 314.242188 -486.546875 285.195312 -501.15625 247.125 -501.15625 C 227.4375 -501.15625 211.191406 -495.570312 198.390625 -484.40625 C 185.585938 -473.25 179.1875 -457.828125 179.1875 -438.140625 C 179.1875 -415.816406 186.734375 -396.613281 201.828125 -380.53125 C 216.929688 -364.457031 240.566406 -344.929688 272.734375 -321.953125 L 301.28125 -301.28125 C 341.320312 -271.082031 370.859375 -244.164062 389.890625 -220.53125 C 408.929688 -196.90625 418.453125 -167.375 418.453125 -131.9375 C 418.453125 -103.050781 410.082031 -77.445312 393.34375 -55.125 C 376.601562 -32.8125 354.117188 -15.75 325.890625 -3.9375 C 297.671875 7.875 266.492188 13.78125 232.359375 13.78125 C 196.253906 13.78125 165.40625 6.890625 139.8125 -6.890625 C 118.800781 -17.390625 103.703125 -24.28125 94.515625 -27.5625 C 87.953125 -29.53125 82.207031 -27.394531 77.28125 -21.15625 C 72.363281 -14.925781 68.59375 -5.578125 65.96875 6.890625 L 45.296875 6.890625 C 47.921875 -30.523438 49.234375 -96.164062 49.234375 -190.03125 L 69.90625 -190.03125 C 83.03125 -69.25 127.335938 -8.859375 202.828125 -8.859375 C 221.859375 -8.859375 238.101562 -14.601562 251.5625 -26.09375 C 265.019531 -37.582031 271.75 -55.140625 271.75 -78.765625 C 271.75 -97.140625 267.644531 -113.546875 259.4375 -127.984375 C 251.226562 -142.429688 240.890625 -155.234375 228.421875 -166.390625 C 215.953125 -177.546875 197.242188 -192.972656 172.296875 -212.671875 C 142.765625 -236.296875 120.285156 -255.328125 104.859375 -269.765625 C 89.429688 -284.210938 76.300781 -301.28125 65.46875 -320.96875 C 54.644531 -340.664062 49.234375 -362.65625 49.234375 -386.9375 C 49.234375 -428.945312 65.640625 -462.09375 98.453125 -486.375 C 131.273438 -510.664062 171.316406 -522.8125 218.578125 -522.8125 Z M 218.578125 -522.8125 "/></g></g></g><g fill="rgb(0%, 0%, 0%)" fill-opacity="1"><g transform="translate(2016.148735, 2156.051705)"><g><path d="M 51.496094 -115.289062 C 27.714844 -115.289062 11.808594 -103.644531 11.808594 -85.605469 C 11.808594 -44.441406 76.421875 -60.515625 76.257812 -30.339844 C 76.257812 -19.351562 65.925781 -12.628906 49.363281 -12.628906 C 36.40625 -12.628906 21.8125 -18.53125 11.152344 -28.863281 L 5.246094 -17.054688 C 16.070312 -6.722656 32.472656 0.492188 49.199219 0.492188 C 73.796875 0.492188 90.6875 -11.808594 90.6875 -30.996094 C 90.851562 -72.648438 26.238281 -57.234375 26.238281 -86.753906 C 26.238281 -96.429688 35.914062 -102.003906 50.675781 -102.003906 C 59.859375 -102.003906 71.992188 -99.214844 82.324219 -92.328125 L 87.902344 -104.628906 C 78.390625 -111.023438 64.777344 -115.289062 51.496094 -115.289062 Z M 51.496094 -115.289062 "/></g></g></g><g fill="rgb(0%, 0%, 0%)" fill-opacity="1"><g transform="translate(2137.647442, 2156.051705)"><g><path d="M 30.503906 0 L 30.503906 -114.796875 L 17.382812 -114.796875 L 17.382812 0 Z M 30.503906 0 "/></g></g></g><g fill="rgb(0%, 0%, 0%)" fill-opacity="1"><g transform="translate(2206.850049, 2156.051705)"><g><path d="M 112.828125 0 L 112.828125 -114.796875 L 99.871094 -114.796875 L 99.871094 -22.46875 L 30.996094 -114.796875 L 17.382812 -114.796875 L 17.382812 0 L 30.503906 0 L 30.503906 -92.164062 L 99.378906 0 Z M 112.828125 0 "/></g></g></g><g fill="rgb(0%, 0%, 0%)" fill-opacity="1"><g transform="translate(2358.513354, 2156.051705)"><g><path d="M 66.417969 -115.125 C 33.125 -115.125 6.558594 -89.703125 6.558594 -57.5625 C 6.558594 -25.089844 32.796875 0.65625 65.925781 0.65625 C 81.832031 0.65625 97.25 -6.394531 108.5625 -17.054688 L 100.527344 -26.074219 C 91.507812 -17.546875 79.210938 -12.300781 66.582031 -12.300781 C 40.671875 -12.300781 19.84375 -32.472656 19.84375 -57.5625 C 19.84375 -82.816406 40.671875 -102.824219 66.582031 -102.824219 C 79.210938 -102.824219 91.671875 -97.414062 100.527344 -88.394531 L 108.398438 -98.394531 C 97.414062 -108.726562 82.160156 -115.125 66.417969 -115.125 Z M 66.417969 -115.125 "/></g></g></g><g fill="rgb(0%, 0%, 0%)" fill-opacity="1"><g transform="translate(2494.602673, 2156.051705)"><g><path d="M 95.28125 -102.167969 L 95.28125 -114.796875 L 17.382812 -114.796875 L 17.382812 0 L 97.414062 0 L 97.414062 -12.464844 L 30.503906 -12.464844 L 30.503906 -51.820312 L 88.394531 -51.820312 L 88.394531 -64.449219 L 30.503906 -64.449219 L 30.503906 -102.167969 Z M 95.28125 -102.167969 "/></g></g></g><g fill="rgb(0%, 0%, 0%)" fill-opacity="1"><g transform="translate(2622.65888, 2156.051705)"><g/></g></g><g fill="rgb(0%, 0%, 0%)" fill-opacity="1"><g transform="translate(2688.91052, 2156.051705)"><g><path d="M 45.261719 -115.289062 C 31.652344 -115.289062 17.710938 -109.382812 6.558594 -99.378906 L 12.300781 -88.886719 C 21.484375 -97.742188 33.125 -103.152344 43.621094 -103.152344 C 58.054688 -103.152344 66.582031 -96.429688 66.582031 -85.277344 C 66.582031 -77.898438 60.515625 -67.238281 50.839844 -57.5625 L 7.871094 -10.824219 L 7.871094 0 L 86.753906 0 L 86.753906 -12.464844 L 24.597656 -12.464844 L 59.859375 -49.855469 C 71.992188 -62.808594 80.191406 -76.09375 80.191406 -87.082031 C 80.191406 -104.300781 66.417969 -115.289062 45.261719 -115.289062 Z M 45.261719 -115.289062 "/></g></g></g><g fill="rgb(0%, 0%, 0%)" fill-opacity="1"><g transform="translate(2805.491122, 2156.051705)"><g><path d="M 56.085938 -115.125 C 25.582031 -115.125 8.691406 -94.460938 8.691406 -57.398438 C 8.691406 -20.335938 25.582031 0.328125 56.085938 0.328125 C 86.589844 0.328125 103.480469 -20.335938 103.480469 -57.398438 C 103.480469 -94.460938 86.589844 -115.125 56.085938 -115.125 Z M 56.085938 -103.972656 C 78.390625 -103.972656 90.195312 -88.558594 90.195312 -57.398438 C 90.195312 -26.402344 78.390625 -10.824219 56.085938 -10.824219 C 33.78125 -10.824219 21.976562 -26.402344 21.976562 -57.398438 C 21.976562 -88.558594 33.78125 -103.972656 56.085938 -103.972656 Z M 56.085938 -103.972656 "/></g></g></g><g fill="rgb(0%, 0%, 0%)" fill-opacity="1"><g transform="translate(2938.957432, 2156.051705)"><g><path d="M 45.261719 -115.289062 C 31.652344 -115.289062 17.710938 -109.382812 6.558594 -99.378906 L 12.300781 -88.886719 C 21.484375 -97.742188 33.125 -103.152344 43.621094 -103.152344 C 58.054688 -103.152344 66.582031 -96.429688 66.582031 -85.277344 C 66.582031 -77.898438 60.515625 -67.238281 50.839844 -57.5625 L 7.871094 -10.824219 L 7.871094 0 L 86.753906 0 L 86.753906 -12.464844 L 24.597656 -12.464844 L 59.859375 -49.855469 C 71.992188 -62.808594 80.191406 -76.09375 80.191406 -87.082031 C 80.191406 -104.300781 66.417969 -115.289062 45.261719 -115.289062 Z M 45.261719 -115.289062 "/></g></g></g><g fill="rgb(0%, 0%, 0%)" fill-opacity="1"><g transform="translate(3055.538091, 2156.051705)"><g><path d="M 56.085938 -115.125 C 25.582031 -115.125 8.691406 -94.460938 8.691406 -57.398438 C 8.691406 -20.335938 25.582031 0.328125 56.085938 0.328125 C 86.589844 0.328125 103.480469 -20.335938 103.480469 -57.398438 C 103.480469 -94.460938 86.589844 -115.125 56.085938 -115.125 Z M 56.085938 -103.972656 C 78.390625 -103.972656 90.195312 -88.558594 90.195312 -57.398438 C 90.195312 -26.402344 78.390625 -10.824219 56.085938 -10.824219 C 33.78125 -10.824219 21.976562 -26.402344 21.976562 -57.398438 C 21.976562 -88.558594 33.78125 -103.972656 56.085938 -103.972656 Z M 56.085938 -103.972656 "/></g></g></g></svg>