<svg xmlns="http://www.w3.org/2000/svg" xmlns:xlink="http://www.w3.org/1999/xlink" width="500" zoomAndPan="magnify" viewBox="0 0 375 374.999991" height="500" preserveAspectRatio="xMidYMid meet" version="1.0"><defs><g><g id="id1"/></g><clipPath id="id2"><path d="M 2.585938 133.417969 L 370.085938 133.417969 L 370.085938 233.167969 L 2.585938 233.167969 Z M 2.585938 133.417969 " clip-rule="nonzero"/></clipPath></defs><g clip-path="url(#id2)"><path fill="rgb(98.429871%, 74.899292%, 14.118958%)" d="M 2.585938 133.417969 L 370.085938 133.417969 L 370.085938 233.167969 L 2.585938 233.167969 Z M 2.585938 133.417969 " fill-opacity="1" fill-rule="nonzero"/></g><g fill="rgb(0%, 0%, 0%)" fill-opacity="1"><g transform="translate(26.974123, 208.073081)"><g><path d="M 42.859375 -11.1875 C 42.859375 -6.675781 43.03125 -2.945312 43.375 0 C 40.03125 -0.144531 34.410156 -0.21875 26.515625 -0.21875 C 15.804688 -0.21875 7.800781 -0.144531 2.5 0 L 2.5 -1.46875 C 4.125 -1.570312 5.316406 -1.769531 6.078125 -2.0625 C 6.835938 -2.351562 7.351562 -2.914062 7.625 -3.75 C 7.894531 -4.582031 8.03125 -5.9375 8.03125 -7.8125 L 8.03125 -44.328125 C 8.03125 -46.191406 7.894531 -47.539062 7.625 -48.375 C 7.351562 -49.21875 6.835938 -49.785156 6.078125 -50.078125 C 5.316406 -50.367188 4.125 -50.566406 2.5 -50.671875 L 2.5 -52.140625 C 7.800781 -51.992188 15.804688 -51.921875 26.515625 -51.921875 C 33.722656 -51.921875 38.851562 -51.992188 41.90625 -52.140625 C 41.5625 -48.066406 41.390625 -44.429688 41.390625 -41.234375 C 41.390625 -39.078125 41.460938 -37.410156 41.609375 -36.234375 L 39.90625 -36.234375 C 39.175781 -41.484375 37.851562 -45.160156 35.9375 -47.265625 C 34.019531 -49.378906 31.320312 -50.4375 27.84375 -50.4375 L 24.8125 -50.4375 C 23.289062 -50.4375 22.1875 -50.3125 21.5 -50.0625 C 20.8125 -49.820312 20.34375 -49.347656 20.09375 -48.640625 C 19.851562 -47.929688 19.734375 -46.789062 19.734375 -45.21875 L 19.734375 -26.953125 L 22.09375 -26.953125 C 24.695312 -26.953125 26.671875 -27.910156 28.015625 -29.828125 C 29.367188 -31.742188 30.316406 -34.023438 30.859375 -36.671875 L 32.546875 -36.671875 C 32.398438 -34.609375 32.328125 -32.300781 32.328125 -29.75 L 32.328125 -26.21875 C 32.328125 -23.707031 32.472656 -20.222656 32.765625 -15.765625 L 31.078125 -15.765625 C 30.046875 -22.242188 27.050781 -25.484375 22.09375 -25.484375 L 19.734375 -25.484375 L 19.734375 -6.921875 C 19.734375 -5.347656 19.851562 -4.207031 20.09375 -3.5 C 20.34375 -2.789062 20.8125 -2.3125 21.5 -2.0625 C 22.1875 -1.8125 23.289062 -1.6875 24.8125 -1.6875 L 28.421875 -1.6875 C 31.910156 -1.6875 34.722656 -2.878906 36.859375 -5.265625 C 38.992188 -7.648438 40.503906 -11.6875 41.390625 -17.375 L 43.078125 -17.375 C 42.929688 -15.757812 42.859375 -13.695312 42.859375 -11.1875 Z M 42.859375 -11.1875 "/></g></g></g><g fill="rgb(0%, 0%, 0%)" fill-opacity="1"><g transform="translate(73.663377, 208.073081)"><g><path d="M 31 -16.859375 L 4.421875 -16.859375 L 4.421875 -22.96875 L 31 -22.96875 Z M 31 -16.859375 "/></g></g></g><g fill="rgb(0%, 0%, 0%)" fill-opacity="1"><g transform="translate(109.085357, 208.073081)"><g><path d="M -1.6875 12.515625 C 0.757812 12.421875 2.679688 11.441406 4.078125 9.578125 C 5.484375 7.710938 6.1875 4.960938 6.1875 1.328125 L 6.1875 -30.046875 C 6.1875 -32.304688 5.828125 -33.953125 5.109375 -34.984375 C 4.398438 -36.015625 3.1875 -36.53125 1.46875 -36.53125 L 1.46875 -38.078125 C 3.039062 -37.921875 4.5625 -37.84375 6.03125 -37.84375 C 10.300781 -37.84375 13.890625 -38.1875 16.796875 -38.875 L 16.796875 -6.921875 C 16.796875 -2.796875 16.390625 0.585938 15.578125 3.234375 C 14.765625 5.890625 13.398438 8.101562 11.484375 9.875 C 8.585938 12.519531 4.195312 13.84375 -1.6875 13.84375 Z M 10.671875 -57.078125 C 12.734375 -57.078125 14.363281 -56.570312 15.5625 -55.5625 C 16.769531 -54.550781 17.375 -53.164062 17.375 -51.40625 C 17.375 -49.632812 16.769531 -48.242188 15.5625 -47.234375 C 14.363281 -46.234375 12.734375 -45.734375 10.671875 -45.734375 C 8.609375 -45.734375 6.976562 -46.234375 5.78125 -47.234375 C 4.582031 -48.242188 3.984375 -49.632812 3.984375 -51.40625 C 3.984375 -53.164062 4.582031 -54.550781 5.78125 -55.5625 C 6.976562 -56.570312 8.609375 -57.078125 10.671875 -57.078125 Z M 10.671875 -57.078125 "/></g></g></g><g fill="rgb(0%, 0%, 0%)" fill-opacity="1"><g transform="translate(130.957136, 208.073081)"><g><path d="M 23.421875 -5 C 27.441406 -5 30.679688 -6.96875 33.140625 -10.90625 L 34.46875 -10.453125 C 33.476562 -7.265625 31.71875 -4.550781 29.1875 -2.3125 C 26.664062 -0.0820312 23.515625 1.03125 19.734375 1.03125 C 14.535156 1.03125 10.398438 -0.625 7.328125 -3.9375 C 4.253906 -7.25 2.71875 -12.144531 2.71875 -18.625 C 2.71875 -25.257812 4.363281 -30.332031 7.65625 -33.84375 C 10.945312 -37.351562 15.316406 -39.109375 20.765625 -39.109375 C 29.992188 -39.109375 34.609375 -33.65625 34.609375 -22.75 L 13.921875 -22.75 C 13.867188 -22.019531 13.84375 -20.867188 13.84375 -19.296875 C 13.84375 -16.054688 14.296875 -13.351562 15.203125 -11.1875 C 16.109375 -9.03125 17.285156 -7.457031 18.734375 -6.46875 C 20.179688 -5.488281 21.742188 -5 23.421875 -5 Z M 20.328125 -37.5625 C 18.554688 -37.5625 17.09375 -36.46875 15.9375 -34.28125 C 14.789062 -32.09375 14.066406 -28.71875 13.765625 -24.15625 L 25.328125 -24.15625 C 25.429688 -28.03125 25.050781 -31.234375 24.1875 -33.765625 C 23.332031 -36.296875 22.046875 -37.5625 20.328125 -37.5625 Z M 20.328125 -37.5625 "/></g></g></g><g fill="rgb(0%, 0%, 0%)" fill-opacity="1"><g transform="translate(168.072893, 208.073081)"><g><path d="M 27.09375 -39.109375 C 29.300781 -39.109375 30.96875 -38.441406 32.09375 -37.109375 C 33.226562 -35.785156 33.796875 -34.191406 33.796875 -32.328125 C 33.796875 -30.515625 33.269531 -29.03125 32.21875 -27.875 C 31.164062 -26.71875 29.78125 -26.140625 28.0625 -26.140625 C 26.382812 -26.140625 25.054688 -26.566406 24.078125 -27.421875 C 23.097656 -28.285156 22.609375 -29.429688 22.609375 -30.859375 C 22.609375 -33.210938 23.6875 -35.125 25.84375 -36.59375 C 25.644531 -36.644531 25.351562 -36.671875 24.96875 -36.671875 C 24.476562 -36.671875 24.082031 -36.625 23.78125 -36.53125 C 21.914062 -36.226562 20.332031 -35.09375 19.03125 -33.125 C 17.726562 -31.164062 17.078125 -29.15625 17.078125 -27.09375 L 17.078125 -7.578125 C 17.078125 -5.328125 17.628906 -3.757812 18.734375 -2.875 C 19.847656 -1.988281 21.601562 -1.546875 24 -1.546875 L 24 0 C 23.3125 0 22.75 -0.0234375 22.3125 -0.078125 C 17.300781 -0.222656 13.960938 -0.296875 12.296875 -0.296875 C 10.972656 -0.296875 7.953125 -0.222656 3.234375 -0.078125 C 2.847656 -0.0234375 2.359375 0 1.765625 0 L 1.765625 -1.546875 C 3.535156 -1.546875 4.765625 -1.925781 5.453125 -2.6875 C 6.140625 -3.445312 6.484375 -4.832031 6.484375 -6.84375 L 6.484375 -30.046875 C 6.484375 -32.304688 6.140625 -33.953125 5.453125 -34.984375 C 4.765625 -36.015625 3.535156 -36.53125 1.765625 -36.53125 L 1.765625 -38.078125 C 3.335938 -37.921875 4.859375 -37.84375 6.328125 -37.84375 C 10.703125 -37.84375 14.285156 -38.1875 17.078125 -38.875 L 17.078125 -32.03125 C 18.015625 -34.144531 19.363281 -35.851562 21.125 -37.15625 C 22.894531 -38.457031 24.882812 -39.109375 27.09375 -39.109375 Z M 27.09375 -39.109375 "/></g></g></g><g fill="rgb(0%, 0%, 0%)" fill-opacity="1"><g transform="translate(202.463883, 208.073081)"><g><path d="M 16.34375 -39.109375 C 18.207031 -39.109375 19.925781 -38.875 21.5 -38.40625 C 23.070312 -37.9375 24.273438 -37.40625 25.109375 -36.8125 C 25.597656 -36.476562 26.039062 -36.3125 26.4375 -36.3125 C 26.875 -36.3125 27.253906 -36.539062 27.578125 -37 C 27.898438 -37.46875 28.109375 -38.144531 28.203125 -39.03125 L 29.75 -39.03125 C 29.550781 -36.53125 29.453125 -32.207031 29.453125 -26.0625 L 27.90625 -26.0625 C 27.46875 -29.300781 26.5 -32.015625 25 -34.203125 C 23.5 -36.390625 21.328125 -37.484375 18.484375 -37.484375 C 17.015625 -37.484375 15.800781 -37.066406 14.84375 -36.234375 C 13.882812 -35.398438 13.40625 -34.242188 13.40625 -32.765625 C 13.40625 -31.097656 13.96875 -29.660156 15.09375 -28.453125 C 16.226562 -27.253906 18 -25.796875 20.40625 -24.078125 L 22.53125 -22.53125 C 25.53125 -20.269531 27.738281 -18.253906 29.15625 -16.484375 C 30.582031 -14.722656 31.296875 -12.519531 31.296875 -9.875 C 31.296875 -7.707031 30.671875 -5.789062 29.421875 -4.125 C 28.171875 -2.457031 26.488281 -1.179688 24.375 -0.296875 C 22.257812 0.585938 19.925781 1.03125 17.375 1.03125 C 14.675781 1.03125 12.367188 0.515625 10.453125 -0.515625 C 8.878906 -1.296875 7.75 -1.8125 7.0625 -2.0625 C 6.570312 -2.207031 6.144531 -2.046875 5.78125 -1.578125 C 5.414062 -1.117188 5.132812 -0.421875 4.9375 0.515625 L 3.390625 0.515625 C 3.585938 -2.285156 3.6875 -7.195312 3.6875 -14.21875 L 5.234375 -14.21875 C 6.210938 -5.175781 9.523438 -0.65625 15.171875 -0.65625 C 16.597656 -0.65625 17.8125 -1.082031 18.8125 -1.9375 C 19.820312 -2.800781 20.328125 -4.117188 20.328125 -5.890625 C 20.328125 -7.265625 20.019531 -8.488281 19.40625 -9.5625 C 18.789062 -10.644531 18.015625 -11.601562 17.078125 -12.4375 C 16.148438 -13.28125 14.753906 -14.4375 12.890625 -15.90625 C 10.679688 -17.675781 9 -19.097656 7.84375 -20.171875 C 6.6875 -21.253906 5.703125 -22.53125 4.890625 -24 C 4.085938 -25.476562 3.6875 -27.125 3.6875 -28.9375 C 3.6875 -32.082031 4.910156 -34.5625 7.359375 -36.375 C 9.816406 -38.195312 12.8125 -39.109375 16.34375 -39.109375 Z M 16.34375 -39.109375 "/></g></g></g><g fill="rgb(0%, 0%, 0%)" fill-opacity="1"><g transform="translate(236.486651, 208.073081)"><g><path d="M 23.421875 -5 C 27.441406 -5 30.679688 -6.96875 33.140625 -10.90625 L 34.46875 -10.453125 C 33.476562 -7.265625 31.71875 -4.550781 29.1875 -2.3125 C 26.664062 -0.0820312 23.515625 1.03125 19.734375 1.03125 C 14.535156 1.03125 10.398438 -0.625 7.328125 -3.9375 C 4.253906 -7.25 2.71875 -12.144531 2.71875 -18.625 C 2.71875 -25.257812 4.363281 -30.332031 7.65625 -33.84375 C 10.945312 -37.351562 15.316406 -39.109375 20.765625 -39.109375 C 29.992188 -39.109375 34.609375 -33.65625 34.609375 -22.75 L 13.921875 -22.75 C 13.867188 -22.019531 13.84375 -20.867188 13.84375 -19.296875 C 13.84375 -16.054688 14.296875 -13.351562 15.203125 -11.1875 C 16.109375 -9.03125 17.285156 -7.457031 18.734375 -6.46875 C 20.179688 -5.488281 21.742188 -5 23.421875 -5 Z M 20.328125 -37.5625 C 18.554688 -37.5625 17.09375 -36.46875 15.9375 -34.28125 C 14.789062 -32.09375 14.066406 -28.71875 13.765625 -24.15625 L 25.328125 -24.15625 C 25.429688 -28.03125 25.050781 -31.234375 24.1875 -33.765625 C 23.332031 -36.296875 22.046875 -37.5625 20.328125 -37.5625 Z M 20.328125 -37.5625 "/></g></g></g><g fill="rgb(0%, 0%, 0%)" fill-opacity="1"><g transform="translate(273.602408, 208.073081)"><g><path d="M 32.109375 -37.84375 C 34.566406 -37.84375 36.457031 -37.921875 37.78125 -38.078125 L 37.78125 -36.59375 C 36.75 -36.300781 35.828125 -35.675781 35.015625 -34.71875 C 34.203125 -33.757812 33.429688 -32.273438 32.703125 -30.265625 L 19.515625 6.78125 C 18.535156 9.332031 17.457031 11.070312 16.28125 12 C 14.851562 13.226562 12.71875 13.84375 9.875 13.84375 C 7.8125 13.84375 5.957031 13.335938 4.3125 12.328125 C 2.664062 11.328125 1.84375 9.867188 1.84375 7.953125 C 1.84375 6.429688 2.378906 5.21875 3.453125 4.3125 C 4.535156 3.40625 5.960938 2.953125 7.734375 2.953125 C 9.398438 2.953125 10.734375 3.351562 11.734375 4.15625 C 12.742188 4.96875 13.25 6.109375 13.25 7.578125 C 13.25 8.609375 12.929688 9.550781 12.296875 10.40625 C 11.660156 11.269531 10.753906 11.925781 9.578125 12.375 C 9.921875 12.414062 10.484375 12.4375 11.265625 12.4375 C 14.304688 12.4375 16.539062 10.5 17.96875 6.625 L 19.140625 3.09375 L 3.53125 -32.40625 C 2.75 -34.070312 1.988281 -35.175781 1.25 -35.71875 C 0.507812 -36.257812 -0.25 -36.53125 -1.03125 -36.53125 L -1.03125 -38.078125 C 2.207031 -37.773438 5.570312 -37.625 9.0625 -37.625 C 11.957031 -37.625 15.367188 -37.773438 19.296875 -38.078125 L 19.296875 -36.53125 C 17.722656 -36.53125 16.554688 -36.414062 15.796875 -36.1875 C 15.035156 -35.96875 14.65625 -35.394531 14.65625 -34.46875 C 14.65625 -33.925781 14.828125 -33.238281 15.171875 -32.40625 L 24.15625 -10.671875 L 29.234375 -24.8125 C 30.015625 -27.125 30.40625 -29.085938 30.40625 -30.703125 C 30.40625 -34.285156 28.59375 -36.25 24.96875 -36.59375 L 24.96875 -38.078125 C 27.269531 -37.921875 29.648438 -37.84375 32.109375 -37.84375 Z M 32.109375 -37.84375 "/></g></g></g><g fill="rgb(0%, 0%, 0%)" fill-opacity="1"><g transform="translate(311.822793, 208.073081)"><g><path d="M 16.34375 -39.109375 C 18.207031 -39.109375 19.925781 -38.875 21.5 -38.40625 C 23.070312 -37.9375 24.273438 -37.40625 25.109375 -36.8125 C 25.597656 -36.476562 26.039062 -36.3125 26.4375 -36.3125 C 26.875 -36.3125 27.253906 -36.539062 27.578125 -37 C 27.898438 -37.46875 28.109375 -38.144531 28.203125 -39.03125 L 29.75 -39.03125 C 29.550781 -36.53125 29.453125 -32.207031 29.453125 -26.0625 L 27.90625 -26.0625 C 27.46875 -29.300781 26.5 -32.015625 25 -34.203125 C 23.5 -36.390625 21.328125 -37.484375 18.484375 -37.484375 C 17.015625 -37.484375 15.800781 -37.066406 14.84375 -36.234375 C 13.882812 -35.398438 13.40625 -34.242188 13.40625 -32.765625 C 13.40625 -31.097656 13.96875 -29.660156 15.09375 -28.453125 C 16.226562 -27.253906 18 -25.796875 20.40625 -24.078125 L 22.53125 -22.53125 C 25.53125 -20.269531 27.738281 -18.253906 29.15625 -16.484375 C 30.582031 -14.722656 31.296875 -12.519531 31.296875 -9.875 C 31.296875 -7.707031 30.671875 -5.789062 29.421875 -4.125 C 28.171875 -2.457031 26.488281 -1.179688 24.375 -0.296875 C 22.257812 0.585938 19.925781 1.03125 17.375 1.03125 C 14.675781 1.03125 12.367188 0.515625 10.453125 -0.515625 C 8.878906 -1.296875 7.75 -1.8125 7.0625 -2.0625 C 6.570312 -2.207031 6.144531 -2.046875 5.78125 -1.578125 C 5.414062 -1.117188 5.132812 -0.421875 4.9375 0.515625 L 3.390625 0.515625 C 3.585938 -2.285156 3.6875 -7.195312 3.6875 -14.21875 L 5.234375 -14.21875 C 6.210938 -5.175781 9.523438 -0.65625 15.171875 -0.65625 C 16.597656 -0.65625 17.8125 -1.082031 18.8125 -1.9375 C 19.820312 -2.800781 20.328125 -4.117188 20.328125 -5.890625 C 20.328125 -7.265625 20.019531 -8.488281 19.40625 -9.5625 C 18.789062 -10.644531 18.015625 -11.601562 17.078125 -12.4375 C 16.148438 -13.28125 14.753906 -14.4375 12.890625 -15.90625 C 10.679688 -17.675781 9 -19.097656 7.84375 -20.171875 C 6.6875 -21.253906 5.703125 -22.53125 4.890625 -24 C 4.085938 -25.476562 3.6875 -27.125 3.6875 -28.9375 C 3.6875 -32.082031 4.910156 -34.5625 7.359375 -36.375 C 9.816406 -38.195312 12.8125 -39.109375 16.34375 -39.109375 Z M 16.34375 -39.109375 "/></g></g></g><g fill="rgb(0%, 0%, 0%)" fill-opacity="1"><g transform="translate(143.621624, 256.517238)"><g><path d="M 3.851562 -8.625 C 2.074219 -8.625 0.882812 -7.753906 0.882812 -6.402344 C 0.882812 -3.324219 5.714844 -4.527344 5.703125 -2.269531 C 5.703125 -1.449219 4.929688 -0.945312 3.691406 -0.945312 C 2.722656 -0.945312 1.632812 -1.386719 0.835938 -2.160156 L 0.390625 -1.277344 C 1.203125 -0.503906 2.429688 0.0351562 3.679688 0.0351562 C 5.519531 0.0351562 6.78125 -0.882812 6.78125 -2.316406 C 6.796875 -5.433594 1.960938 -4.28125 1.960938 -6.488281 C 1.960938 -7.210938 2.6875 -7.628906 3.789062 -7.628906 C 4.476562 -7.628906 5.386719 -7.421875 6.15625 -6.90625 L 6.574219 -7.824219 C 5.863281 -8.304688 4.84375 -8.625 3.851562 -8.625 Z M 3.851562 -8.625 "/></g></g></g><g fill="rgb(0%, 0%, 0%)" fill-opacity="1"><g transform="translate(152.709221, 256.517238)"><g><path d="M 2.28125 0 L 2.28125 -8.585938 L 1.300781 -8.585938 L 1.300781 0 Z M 2.28125 0 "/></g></g></g><g fill="rgb(0%, 0%, 0%)" fill-opacity="1"><g transform="translate(157.885287, 256.517238)"><g><path d="M 8.4375 0 L 8.4375 -8.585938 L 7.46875 -8.585938 L 7.46875 -1.679688 L 2.316406 -8.585938 L 1.300781 -8.585938 L 1.300781 0 L 2.28125 0 L 2.28125 -6.894531 L 7.433594 0 Z M 8.4375 0 "/></g></g></g><g fill="rgb(0%, 0%, 0%)" fill-opacity="1"><g transform="translate(169.22907, 256.517238)"><g><path d="M 4.96875 -8.609375 C 2.476562 -8.609375 0.492188 -6.710938 0.492188 -4.304688 C 0.492188 -1.875 2.453125 0.0507812 4.929688 0.0507812 C 6.121094 0.0507812 7.273438 -0.476562 8.121094 -1.277344 L 7.519531 -1.949219 C 6.84375 -1.3125 5.925781 -0.921875 4.980469 -0.921875 C 3.042969 -0.921875 1.484375 -2.429688 1.484375 -4.304688 C 1.484375 -6.195312 3.042969 -7.691406 4.980469 -7.691406 C 5.925781 -7.691406 6.855469 -7.285156 7.519531 -6.613281 L 8.109375 -7.359375 C 7.285156 -8.132812 6.144531 -8.609375 4.96875 -8.609375 Z M 4.96875 -8.609375 "/></g></g></g><g fill="rgb(0%, 0%, 0%)" fill-opacity="1"><g transform="translate(179.407984, 256.517238)"><g><path d="M 7.125 -7.640625 L 7.125 -8.585938 L 1.300781 -8.585938 L 1.300781 0 L 7.285156 0 L 7.285156 -0.933594 L 2.28125 -0.933594 L 2.28125 -3.875 L 6.613281 -3.875 L 6.613281 -4.820312 L 2.28125 -4.820312 L 2.28125 -7.640625 Z M 7.125 -7.640625 "/></g></g></g><g fill="rgb(0%, 0%, 0%)" fill-opacity="1"><g transform="translate(188.986054, 256.517238)"><g/></g></g><g fill="rgb(0%, 0%, 0%)" fill-opacity="1"><g transform="translate(193.941401, 256.517238)"><g><path d="M 3.386719 -8.625 C 2.367188 -8.625 1.324219 -8.179688 0.492188 -7.433594 L 0.921875 -6.648438 C 1.605469 -7.3125 2.476562 -7.714844 3.261719 -7.714844 C 4.34375 -7.714844 4.980469 -7.210938 4.980469 -6.378906 C 4.980469 -5.828125 4.527344 -5.027344 3.800781 -4.304688 L 0.589844 -0.808594 L 0.589844 0 L 6.488281 0 L 6.488281 -0.933594 L 1.839844 -0.933594 L 4.476562 -3.730469 C 5.386719 -4.699219 6 -5.691406 6 -6.511719 C 6 -7.800781 4.96875 -8.625 3.386719 -8.625 Z M 3.386719 -8.625 "/></g></g></g><g fill="rgb(0%, 0%, 0%)" fill-opacity="1"><g transform="translate(202.661144, 256.517238)"><g><path d="M 4.195312 -8.609375 C 1.914062 -8.609375 0.648438 -7.066406 0.648438 -4.292969 C 0.648438 -1.519531 1.914062 0.0234375 4.195312 0.0234375 C 6.476562 0.0234375 7.738281 -1.519531 7.738281 -4.292969 C 7.738281 -7.066406 6.476562 -8.609375 4.195312 -8.609375 Z M 4.195312 -7.777344 C 5.863281 -7.777344 6.746094 -6.625 6.746094 -4.292969 C 6.746094 -1.976562 5.863281 -0.808594 4.195312 -0.808594 C 2.527344 -0.808594 1.644531 -1.976562 1.644531 -4.292969 C 1.644531 -6.625 2.527344 -7.777344 4.195312 -7.777344 Z M 4.195312 -7.777344 "/></g></g></g><g fill="rgb(0%, 0%, 0%)" fill-opacity="1"><g transform="translate(212.643867, 256.517238)"><g><path d="M 3.386719 -8.625 C 2.367188 -8.625 1.324219 -8.179688 0.492188 -7.433594 L 0.921875 -6.648438 C 1.605469 -7.3125 2.476562 -7.714844 3.261719 -7.714844 C 4.34375 -7.714844 4.980469 -7.210938 4.980469 -6.378906 C 4.980469 -5.828125 4.527344 -5.027344 3.800781 -4.304688 L 0.589844 -0.808594 L 0.589844 0 L 6.488281 0 L 6.488281 -0.933594 L 1.839844 -0.933594 L 4.476562 -3.730469 C 5.386719 -4.699219 6 -5.691406 6 -6.511719 C 6 -7.800781 4.96875 -8.625 3.386719 -8.625 Z M 3.386719 -8.625 "/></g></g></g><g fill="rgb(0%, 0%, 0%)" fill-opacity="1"><g transform="translate(221.363615, 256.517238)"><g><path d="M 4.195312 -8.609375 C 1.914062 -8.609375 0.648438 -7.066406 0.648438 -4.292969 C 0.648438 -1.519531 1.914062 0.0234375 4.195312 0.0234375 C 6.476562 0.0234375 7.738281 -1.519531 7.738281 -4.292969 C 7.738281 -7.066406 6.476562 -8.609375 4.195312 -8.609375 Z M 4.195312 -7.777344 C 5.863281 -7.777344 6.746094 -6.625 6.746094 -4.292969 C 6.746094 -1.976562 5.863281 -0.808594 4.195312 -0.808594 C 2.527344 -0.808594 1.644531 -1.976562 1.644531 -4.292969 C 1.644531 -6.625 2.527344 -7.777344 4.195312 -7.777344 Z M 4.195312 -7.777344 "/></g></g></g></svg>